<svg width="8" height="14" viewBox="0 0 8 14" fill="none" xmlns="http://www.w3.org/2000/svg">
<path d="M3.696 7.478C3.332 7.37533 2.97733 7.254 2.632 7.114C2.296 6.96467 1.99733 6.78267 1.736 6.568C1.484 6.344 1.27867 6.078 1.12 5.77C0.961333 5.462 0.882 5.08867 0.882 4.65C0.882 4.23933 0.956667 3.87067 1.106 3.544C1.26467 3.21733 1.47 2.942 1.722 2.718C1.98333 2.48467 2.282 2.30267 2.618 2.172C2.96333 2.032 3.32267 1.95267 3.696 1.934V0.954H4.41V1.92C4.89533 1.92933 5.38533 2.02267 5.88 2.2C6.384 2.368 6.81333 2.62933 7.168 2.984L6.216 3.866C6.00133 3.59533 5.726 3.39 5.39 3.25C5.06333 3.11 4.73667 3.03533 4.41 3.026V6.358C4.76467 6.47933 5.11467 6.61467 5.46 6.764C5.81467 6.91333 6.12733 7.10467 6.398 7.338C6.678 7.562 6.902 7.83733 7.07 8.164C7.238 8.49067 7.322 8.88267 7.322 9.34C7.322 9.77867 7.24267 10.1707 7.084 10.516C6.93467 10.8613 6.72467 11.1553 6.454 11.398C6.19267 11.6407 5.88467 11.8273 5.53 11.958C5.17533 12.0793 4.802 12.1447 4.41 12.154V13.162H3.696V12.154C3.07067 12.1353 2.492 12.0093 1.96 11.776C1.428 11.5333 0.966 11.1973 0.574 10.768L1.596 9.9C1.71733 10.0773 1.86667 10.236 2.044 10.376C2.22133 10.516 2.40333 10.6373 2.59 10.74C2.77667 10.8333 2.96333 10.908 3.15 10.964C3.346 11.0107 3.528 11.034 3.696 11.034V7.478ZM4.41 11.034C4.61533 11.0247 4.81133 10.9827 4.998 10.908C5.18467 10.8333 5.348 10.7307 5.488 10.6C5.63733 10.46 5.754 10.2873 5.838 10.082C5.93133 9.87667 5.978 9.634 5.978 9.354C5.978 8.906 5.82867 8.55133 5.53 8.29C5.23133 8.02867 4.858 7.82333 4.41 7.674V11.034ZM3.696 3.026C3.28533 3.054 2.93533 3.20333 2.646 3.474C2.35667 3.73533 2.212 4.09933 2.212 4.566C2.212 5.014 2.34733 5.35933 2.618 5.602C2.898 5.83533 3.25733 6.01733 3.696 6.148V3.026Z" fill="#2A3558"/>
</svg>
